<?xml version="1.0" encoding="utf-8"?>
<!-- Generator: Adobe Illustrator 24.3.0, SVG Export Plug-In . SVG Version: 6.00 Build 0)  -->
<svg version="1.1" id="Layer_1" xmlns="http://www.w3.org/2000/svg" xmlns:xlink="http://www.w3.org/1999/xlink" x="0px" y="0px"
	 viewBox="0 0 654 734" style="enable-background:new 0 0 654 734;" xml:space="preserve">
<style type="text/css">
	.st0{fill:#103C48;}
	.st1{fill:#FA5750;}
	.st2{fill:#FDF6E3;}
	.st3{fill:#383838;}
	.st4{fill:#282828;}
	.st5{fill:none;stroke:#282828;stroke-width:18.5106;stroke-miterlimit:10;}
	.st6{fill:#282828;stroke:#282828;stroke-width:18.5106;stroke-miterlimit:10;}
	.st7{fill:none;stroke:#282828;stroke-width:17.0492;stroke-miterlimit:10;}
	.st8{fill:#F2F2F2;stroke:#282828;stroke-width:17.0492;stroke-miterlimit:10;}
	.st9{fill:none;stroke:#282828;stroke-width:24;stroke-miterlimit:10;}
	.st10{fill:#444444;}
	.st11{fill:none;stroke:#282828;stroke-width:100;stroke-miterlimit:10;}
	.st12{fill:none;stroke:#282828;stroke-width:36.4001;stroke-miterlimit:10;}
	.st13{fill:none;stroke:#282828;stroke-width:13.6417;stroke-miterlimit:10;}
	.st14{fill:none;stroke:#282828;stroke-width:17.9118;stroke-miterlimit:10;}
	.st15{fill:none;stroke:#282828;stroke-width:63.606;stroke-miterlimit:10;}
	.st16{fill:none;stroke:#000000;stroke-width:72.2703;stroke-miterlimit:10;}
	.st17{fill:none;stroke:#383838;stroke-width:14;stroke-miterlimit:10;}
	.st18{fill:#0800A0;}
	.st19{fill:#F5FFFF;}
	.st20{fill:#FF772C;}
	.st21{fill:#2EE8D1;}
	.st22{fill:none;stroke:#103C48;stroke-width:60;stroke-miterlimit:10;}
	.st23{fill:none;stroke:#103C48;stroke-width:26.1864;stroke-miterlimit:10;}
	.st24{fill:none;stroke:#103C48;stroke-width:22.9004;stroke-miterlimit:10;}
</style>
<g>
	<path class="st1" d="M629.79,168.43L347.57,5.49c-12.69-7.32-28.45-7.32-41.14,0L24.21,168.43c-12.69,7.33-20.57,20.98-20.57,35.63
		v325.88c0,14.65,7.88,28.3,20.57,35.63l282.22,162.94c6.35,3.66,13.46,5.49,20.57,5.49c7.11,0,14.23-1.83,20.57-5.49l282.22-162.94
		c12.69-7.33,20.57-20.98,20.57-35.63V204.06C650.36,189.41,642.48,175.76,629.79,168.43z M599.83,524.52L327,682.04L54.17,524.52
		V209.48L327,51.96l272.83,157.52V524.52z"/>
	<path class="st1" d="M250.26,208.8c0,33.46,21.54,61.97,51.47,72.44v242.53l-87.81-50.69v-89.02
		c29.76-10.58,51.17-39.04,51.17-72.32c0-41.95-34.03-76.29-75.92-76.72c-0.27-0.01-0.54-0.01-0.81-0.01
		c-42.31,0-76.74,34.42-76.74,76.73c0,33.57,21.68,62.16,51.77,72.54v99.06c0,11.66,6.27,22.53,16.37,28.36l130.85,75.54
		c5.05,2.92,10.71,4.37,16.37,4.37c5.66,0,11.32-1.46,16.37-4.37l130.84-75.54c10.1-5.83,16.38-16.7,16.38-28.36v-99.06
		c30.09-10.38,51.77-38.97,51.77-72.54c0-42.31-34.42-76.73-76.73-76.73c-0.28,0-0.55,0-0.82,0.01
		c-41.9,0.44-75.92,34.78-75.92,76.72c0,33.27,21.41,61.74,51.17,72.31v89.02l-87.8,50.69V281.24
		c29.93-10.47,51.47-38.98,51.47-72.44c0-42.31-34.42-76.74-76.73-76.74S250.26,166.48,250.26,208.8z M188,285.53l0.53,0
		c14.37,0.08,26.05,11.83,26.05,26.2c0,14.37-11.69,26.12-26.05,26.2l-0.54,0c-14.28-0.21-25.83-11.88-25.83-26.21
		C162.16,297.42,173.71,285.74,188,285.53z M465.47,285.54l0.54,0c14.28,0.2,25.83,11.88,25.83,26.21c0,14.32-11.55,26-25.84,26.21
		l-0.53,0c-14.37-0.08-26.05-11.83-26.05-26.2C439.42,297.37,451.1,285.61,465.47,285.54z M353.21,208.8
		c0,14.45-11.76,26.21-26.21,26.21c-14.45,0-26.21-11.76-26.21-26.21s11.76-26.21,26.21-26.21
		C341.45,182.58,353.21,194.34,353.21,208.8z"/>
</g>
</svg>
